<?xml version="1.0" standalone="no"?>
<!DOCTYPE svg PUBLIC "-//W3C//DTD SVG 20010904//EN"
 "http://www.w3.org/TR/2001/REC-SVG-20010904/DTD/svg10.dtd">
<svg version="1.0" xmlns="http://www.w3.org/2000/svg"
 width="499.000000pt" height="499.000000pt" viewBox="0 0 499.000000 499.000000"
 preserveAspectRatio="xMidYMid meet">
<metadata>
Created by potrace 1.14, written by Peter Selinger 2001-2017
</metadata>
<g transform="translate(0.000000,499.000000) scale(0.100000,-0.100000)"
fill="#000000" stroke="none">
<path d="M2310 4639 c0 -5 -7 -6 -15 -3 -8 4 -21 2 -28 -3 -6 -4 -27 -8 -44
-8 -18 0 -33 -3 -33 -8 0 -5 -7 -7 -15 -3 -8 3 -15 2 -15 -3 0 -5 -11 -7 -25
-6 -14 2 -25 -1 -25 -6 0 -5 -3 -8 -7 -7 -17 4 -93 -23 -93 -33 0 -6 -4 -8 -9
-5 -12 8 -153 -59 -144 -68 4 -4 0 -4 -10 0 -10 4 -17 1 -17 -6 0 -8 -8 -10
-21 -7 -12 3 -18 3 -15 0 7 -7 -38 -43 -53 -43 -6 0 -11 -5 -11 -12 0 -6 -3
-9 -6 -5 -3 3 -16 -5 -29 -18 -12 -14 -25 -22 -28 -18 -4 3 -7 0 -7 -7 0 -7
-3 -11 -6 -8 -3 3 -25 -13 -49 -37 -24 -23 -46 -41 -47 -40 -2 2 -9 -3 -16
-11 -7 -8 -9 -14 -5 -14 4 0 -4 -8 -17 -17 -14 -10 -29 -17 -33 -15 -5 1 -6
-2 -3 -7 4 -5 -11 -28 -33 -50 -21 -22 -37 -42 -34 -45 3 -3 -2 -8 -11 -12 -9
-3 -14 -10 -11 -14 3 -4 -2 -11 -11 -14 -9 -4 -14 -13 -10 -22 3 -8 2 -12 -4
-9 -6 3 -10 -1 -10 -10 0 -9 -4 -13 -10 -10 -5 3 -10 1 -10 -4 0 -18 -3 -26
-17 -39 -7 -7 -13 -20 -13 -28 0 -9 -5 -12 -12 -8 -8 5 -9 0 -6 -14 4 -12 2
-20 -3 -16 -5 3 -9 -2 -9 -10 0 -9 -6 -16 -12 -16 -9 0 -8 -4 2 -10 10 -7 11
-10 2 -10 -12 0 -35 -42 -36 -65 -1 -5 -7 -16 -14 -23 -7 -8 -10 -18 -7 -23 4
-5 1 -9 -6 -9 -7 0 -9 -3 -6 -7 4 -3 1 -13 -6 -21 -9 -13 -9 -14 0 -8 9 5 11
2 7 -8 -3 -9 -10 -16 -16 -16 -5 0 -6 -4 -3 -10 3 -5 -1 -23 -10 -41 -9 -17
-14 -33 -11 -37 3 -3 0 -12 -7 -20 -10 -13 -9 -14 3 -7 12 6 12 5 3 -5 -6 -7
-9 -19 -6 -26 3 -8 1 -14 -4 -14 -5 0 -9 -8 -9 -17 -2 -57 -18 -150 -27 -162
-9 -11 -9 -13 -1 -8 8 4 11 -2 10 -18 0 -14 -5 -25 -11 -25 -7 0 -7 -3 0 -8
14 -10 17 -32 4 -32 -8 0 -8 -5 1 -15 10 -12 10 -15 -1 -15 -9 0 -10 -3 -4 -8
6 -4 11 -18 12 -32 4 -79 9 -120 15 -120 3 0 4 -10 0 -22 -4 -16 -2 -19 9 -13
12 7 12 6 1 -7 -9 -12 -10 -18 -2 -23 7 -4 10 -16 7 -26 -3 -11 0 -19 6 -19 6
0 8 -3 4 -6 -3 -3 4 -31 15 -62 10 -32 21 -66 24 -77 2 -11 8 -21 14 -23 5 -2
10 -12 10 -22 0 -10 7 -26 16 -34 8 -9 13 -16 9 -16 -6 0 55 -121 66 -130 10
-9 33 -55 31 -62 -1 -5 4 -8 12 -8 8 0 18 -5 22 -12 5 -7 3 -8 -7 -3 -19 12
-2 -10 69 -88 12 -14 22 -30 22 -35 0 -6 8 -13 18 -17 11 -3 24 -17 31 -31 6
-14 15 -23 20 -20 4 3 14 -6 21 -19 7 -14 20 -25 27 -25 7 0 16 -7 20 -16 3
-8 17 -20 30 -25 15 -5 21 -14 17 -21 -4 -7 -3 -8 4 -4 7 4 12 2 12 -3 0 -6 6
-11 13 -11 7 0 19 -9 27 -19 7 -11 17 -18 21 -16 3 3 18 -5 31 -18 14 -12 31
-23 38 -25 8 -2 26 -12 40 -22 15 -11 30 -17 34 -13 3 3 6 1 6 -6 0 -7 5 -9
10 -6 5 3 10 1 10 -4 0 -6 7 -11 15 -11 9 0 27 -7 40 -16 14 -9 25 -12 25 -8
0 5 4 3 8 -3 4 -7 19 -14 32 -15 14 -2 27 -6 30 -10 3 -3 14 -8 25 -10 11 -1
22 -6 25 -9 3 -4 21 -9 40 -12 19 -3 42 -8 50 -11 8 -3 35 -8 60 -10 25 -2 54
-7 65 -12 33 -13 401 -9 419 5 10 8 16 9 21 1 4 -7 11 -7 18 -2 7 5 27 8 45 7
17 0 32 3 32 7 0 5 11 6 24 4 13 -2 27 -2 30 2 3 3 23 7 44 9 39 4 75 10 80
14 1 1 5 2 10 3 4 1 12 4 17 7 6 4 18 5 28 4 9 -2 15 0 12 4 -2 5 10 8 28 9
17 0 33 6 35 11 2 6 8 9 13 5 5 -3 9 0 9 5 0 6 5 11 11 11 5 0 7 -5 4 -11 -4
-6 2 -5 13 2 12 7 19 15 17 19 -2 3 10 5 26 6 17 1 37 10 45 20 9 10 12 13 8
5 -4 -8 13 0 38 17 25 17 48 29 50 26 3 -2 11 2 18 11 7 8 19 15 27 15 7 0 16
7 19 15 4 8 13 15 21 15 8 0 11 5 8 10 -3 6 0 10 8 10 17 0 137 113 137 129 0
7 5 9 10 6 6 -3 10 1 10 10 0 8 6 18 14 21 8 3 20 19 26 35 7 16 17 26 23 22
6 -4 8 0 5 9 -4 8 2 22 13 31 11 10 16 23 12 33 -4 12 -3 15 5 10 7 -4 13 -2
13 3 3 20 5 26 17 47 6 12 8 24 5 28 -3 3 -1 6 4 6 6 0 10 8 9 18 -2 9 1 20 7
23 5 4 10 18 10 33 0 14 2 24 6 22 4 -3 6 11 6 30 -1 19 2 34 6 34 4 0 6 9 4
20 -2 11 1 20 7 20 7 0 7 4 -1 13 -6 8 -8 17 -4 21 11 11 14 36 14 154 1 73 4
110 11 106 6 -4 6 2 -1 14 -13 24 -14 35 -3 29 10 -7 9 265 -2 282 -6 9 -5 12
2 7 7 -4 10 1 9 14 -1 11 -4 20 -7 20 -4 0 -7 23 -7 51 -1 27 -5 56 -10 62 -5
7 -10 28 -12 47 -2 19 -7 38 -12 41 -5 3 -10 17 -11 32 -1 15 -6 27 -11 27 -4
0 -7 8 -6 18 1 9 -3 28 -8 42 -6 14 -11 29 -11 33 -1 4 -8 14 -16 23 -8 8 -12
22 -9 31 4 11 3 14 -5 9 -7 -4 -12 -2 -12 5 0 7 -8 21 -17 32 -13 15 -14 18
-3 12 8 -5 3 7 -12 27 -16 20 -28 44 -28 52 0 9 -7 16 -16 16 -9 0 -14 5 -12
12 4 12 -9 32 -49 73 -12 13 -19 26 -16 29 4 3 0 6 -7 6 -7 0 -10 3 -7 6 3 4
-7 19 -23 34 -17 16 -30 33 -30 40 0 6 -4 9 -8 6 -4 -2 -17 9 -27 25 -11 16
-25 29 -30 29 -6 0 -17 9 -25 20 -8 11 -20 20 -28 20 -7 0 -10 5 -7 10 3 6 -1
10 -10 10 -8 0 -18 7 -21 15 -4 8 -10 12 -15 9 -5 -3 -9 0 -9 6 0 6 -5 8 -10
5 -6 -4 -9 -2 -8 5 2 6 -10 18 -27 28 -16 9 -31 20 -33 25 -2 4 -10 7 -18 7
-8 0 -14 5 -14 11 0 6 -7 9 -15 5 -9 -3 -15 0 -15 9 0 8 -3 14 -7 13 -14 -3
-63 25 -63 36 0 6 -5 4 -10 -4 -6 -10 -10 -11 -10 -2 0 6 -7 12 -15 12 -8 0
-15 5 -15 10 0 6 -9 10 -20 10 -10 0 -25 6 -32 13 -7 8 -20 12 -29 10 -9 -3
-20 0 -23 6 -4 6 -16 11 -27 11 -11 0 -18 4 -15 9 4 5 -2 8 -11 7 -10 -2 -35
3 -57 10 -47 17 -49 17 -40 2 4 -7 -6 -3 -22 9 -16 11 -45 21 -64 21 -19 0
-37 1 -40 2 -14 7 -380 5 -380 -1z m400 -151 c0 -3 10 -4 22 0 16 4 19 2 13
-9 -7 -12 -6 -12 7 -1 12 10 18 10 23 2 4 -7 18 -10 31 -7 13 2 21 1 19 -3 -6
-9 42 -25 93 -32 6 -1 12 -5 12 -10 0 -4 9 -8 19 -8 11 0 21 -4 23 -9 2 -5 14
-11 28 -13 14 -1 34 -11 44 -20 11 -10 28 -18 38 -18 11 0 16 -4 13 -10 -3 -5
3 -10 14 -10 12 0 21 -5 21 -10 0 -6 3 -9 8 -9 19 3 33 -2 27 -11 -3 -5 1 -10
9 -10 9 0 16 -4 16 -10 0 -5 9 -10 20 -10 11 0 23 -7 26 -15 4 -8 12 -15 20
-15 8 0 14 -9 14 -20 0 -11 -4 -20 -10 -20 -5 0 -10 4 -10 9 0 6 -9 8 -20 6
-11 -2 -18 0 -16 4 3 4 -7 14 -22 22 -15 7 -36 21 -47 30 -11 10 -27 19 -35
21 -8 2 -17 5 -20 8 -14 14 -141 72 -146 67 -4 -3 -13 0 -21 8 -13 13 -41 20
-65 16 -5 0 -8 5 -8 12 0 8 -4 7 -10 -3 -6 -10 -10 -11 -10 -2 0 6 -9 12 -19
12 -11 0 -22 4 -25 8 -2 4 -22 9 -43 10 -21 2 -40 7 -41 12 -2 6 -8 8 -13 4
-17 -10 -51 7 -44 23 5 14 3 14 -12 2 -16 -13 -17 -12 -4 3 13 17 81 22 81 6z
m-894 -273 c-16 -14 -33 -25 -38 -25 -5 0 -6 -4 -3 -10 3 -5 1 -10 -4 -10 -14
0 -56 -41 -56 -55 -1 -5 -5 -9 -10 -8 -6 0 -16 -5 -23 -13 -7 -8 -11 -14 -8
-14 3 0 -7 -13 -22 -28 -15 -16 -36 -41 -47 -57 -11 -16 -30 -39 -41 -51 -12
-13 -19 -26 -15 -29 3 -4 -3 -13 -13 -21 -11 -8 -16 -14 -12 -14 4 0 -2 -13
-14 -30 -12 -16 -18 -35 -14 -41 4 -7 3 -9 -3 -6 -6 4 -14 -4 -17 -18 -4 -14
-11 -23 -16 -20 -6 3 -7 -1 -4 -9 3 -9 1 -16 -5 -16 -6 0 -11 -9 -11 -19 0
-11 -7 -27 -16 -35 -8 -9 -13 -20 -9 -25 3 -6 -3 -9 -13 -8 -10 0 -18 9 -18
18 0 10 5 15 11 11 5 -3 4 2 -4 11 -12 15 -9 21 12 18 4 0 7 3 7 9 0 5 -6 10
-12 10 -10 0 -10 2 -1 8 7 4 10 19 8 34 -3 15 -1 29 4 33 6 3 8 12 5 19 -3 7
3 19 13 27 16 13 17 12 4 -3 -7 -10 -9 -18 -3 -18 15 0 22 26 9 39 -6 6 -7 11
-1 11 5 0 11 10 11 22 1 13 9 28 17 34 9 6 13 14 9 17 -3 4 2 9 11 13 9 3 13
10 10 15 -3 5 2 12 10 15 9 3 14 10 11 14 -3 4 2 11 11 14 8 3 14 9 11 13 -2
5 8 19 21 33 14 14 22 18 17 10 -4 -8 5 -1 20 15 14 17 32 30 38 30 7 1 11 6
10 13 -2 7 2 12 7 12 19 0 25 3 37 19 7 9 13 12 13 7 0 -5 12 4 26 20 15 16
23 23 19 16 -6 -11 -3 -11 14 0 12 7 21 15 21 18 0 3 15 7 33 8 l32 2 -29 -25z"/>
</g>
</svg>
